<svg width="40" height="40" viewBox="0 0 40 40" fill="none" xmlns="http://www.w3.org/2000/svg">
  <path d="M30 12.5H28.75V10C28.75 9.31 28.19 8.75 27.5 8.75H7.5C6.81 8.75 6.25 9.31 6.25 10V22.5C6.25 27.33 10.17 31.25 15 31.25H20C24.83 31.25 28.75 27.33 28.75 22.5V20H30C33.45 20 36.25 17.2 36.25 13.75C36.25 10.3 33.45 7.5 30 7.5V12.5ZM30 17.5H28.75V12.5H30C31.8 12.5 33.25 13.95 33.25 15.75C33.25 17.55 31.8 17.5 30 17.5Z" fill="#FFB400"/>
  <path d="M5 33.75H30" stroke="#FFB400" stroke-width="2.5" stroke-linecap="round" stroke-linejoin="round"/>
</svg>